<svg width="15" height="21" viewBox="0 0 15 21" fill="none" xmlns="http://www.w3.org/2000/svg">
<path d="M7.5 0C3.35559 0 0 3.39223 0 7.57212C0 10.3768 0.937149 11.2533 5.90902 19.302C6.64281 20.4898 8.35801 20.4884 9.09094 19.302C14.0654 11.2491 15 10.3763 15 7.57212C15 3.38785 11.6401 0 7.5 0ZM4.375 7.57212C4.375 5.82962 5.7741 4.41707 7.5 4.41707C9.2259 4.41707 10.625 5.82962 10.625 7.57212C10.625 9.31461 9.2259 10.7272 7.5 10.7272C5.7741 10.7272 4.375 9.31461 4.375 7.57212Z" fill="#FF9233"/>
</svg>
